<svg xmlns="http://www.w3.org/2000/svg" version="1.1" xmlns:xlink="http://www.w3.org/1999/xlink" xmlns:svgjs="http://svgjs.dev/svgjs" viewBox="0 0 800 800"><defs><filter id="bbburst-blur-1" x="-100%" y="-100%" width="400%" height="400%"><feGaussianBlur in="SourceGraphic" stdDeviation="1"></feGaussianBlur></filter><filter id="bbburst-blur-2" x="-100%" y="-100%" width="400%" height="400%"><feGaussianBlur in="SourceGraphic" stdDeviation="2"></feGaussianBlur></filter><filter id="bbburst-blur-3" x="-100%" y="-100%" width="400%" height="400%"><feGaussianBlur in="SourceGraphic" stdDeviation="4"></feGaussianBlur></filter><filter id="bbburst-blur-4" x="-100%" y="-100%" width="400%" height="400%"><feGaussianBlur in="SourceGraphic" stdDeviation="12"></feGaussianBlur></filter><symbol id="bbburst-shape-1" viewBox="0 0 194 167"><path d="m97 0 96.129 166.5H.871L97 0Z"></path></symbol><symbol id="bbburst-shape-4" viewBox="0 0 149 143"><path d="M71.647 2.781c.898-2.764 4.808-2.764 5.706 0l15.445 47.534a3 3 0 0 0 2.853 2.073h49.98c2.906 0 4.115 3.719 1.764 5.427L106.96 87.193a2.999 2.999 0 0 0-1.09 3.354l15.445 47.534c.898 2.764-2.266 5.062-4.617 3.354l-40.435-29.378a3 3 0 0 0-3.526 0l-40.435 29.378c-2.351 1.708-5.515-.59-4.617-3.354L43.13 90.547a3 3 0 0 0-1.09-3.354L1.605 57.815c-2.35-1.708-1.142-5.427 1.764-5.427h49.98a3 3 0 0 0 2.853-2.073L71.647 2.781Z"></path></symbol><symbol id="bbburst-shape-6" viewBox="0 0 133 116"><path d="M59.7487 10.2513c-13.6683-13.66839-35.8291-13.66839-49.4974 0-13.66839 13.6683-13.66839 35.8291 0 49.4974l49.4974-49.4974ZM66.5 66.5 41.7513 91.2487 66.5 115.997l24.7487-24.7483L66.5 66.5Zm56.249-6.7513c13.668-13.6683 13.668-35.8291 0-49.4974-13.669-13.66839-35.8294-13.66839-49.4977 0l49.4977 49.4974Zm-112.4977 0 31.5 31.5 49.4974-49.4974-31.5-31.5-49.4974 49.4974Zm80.9974 31.5 31.5003-31.5-49.4977-49.4974-31.5 31.5 49.4974 49.4974Z"></path></symbol><symbol id="bbburst-shape-8" viewBox="0 0 87 168"><path d="m12 12 31.2546 18.0749c16.4102 9.4902 20.014 31.6325 7.4603 45.8369L36.3296 92.1884c-12.5684 14.2206-8.9394 36.3916 7.5068 45.8636L75 156" stroke-width="14" stroke-linecap="round" stroke-linejoin="round"></path></symbol><symbol id="bbburst-shape-10" viewBox="0 0 145 145"><circle cx="72.5" cy="72.5" r="61.5" fill="none" stroke-width="22"></circle></symbol></defs><use xlink:href="#bbburst-shape-4" width="39.3429860881675" opacity="0.3618242433946348" transform="matrix(0.9809924334334732,0.19404598822514388,-0.19404598822514388,0.9809924334334732,225.03999593095065,324.87425908143325)" fill="#00a19d" filter="url(#bbburst-blur-2)"></use><use xlink:href="#bbburst-shape-10" width="25.045999158057974" opacity="0.6146148774678186" transform="matrix(0.988836267876515,-0.14900615870508546,0.14900615870508546,0.988836267876515,615.944670494077,37.60113233506462)" fill="none" stroke="#ffbd9b" filter="url(#bbburst-blur-1)"></use><use xlink:href="#bbburst-shape-4" width="22.918753198383076" opacity="0.654243179339596" transform="matrix(0.7784479792019824,0.6277091234611378,-0.6277091234611378,0.7784479792019824,748.2994136333969,299.2362335856551)" fill="#ffbd9b"></use><use xlink:href="#bbburst-shape-6" width="19.513342914067998" opacity="0.7226498660398478" transform="matrix(0.9310853678251412,-0.3648013676261667,0.3648013676261667,0.9310853678251412,441.8230000102591,242.32875795954038)" fill="#00a19d"></use><use xlink:href="#bbburst-shape-6" width="31.886547456566582" opacity="0.49665925659014887" transform="matrix(0.9491617312477181,0.3147888307021622,-0.3147888307021622,0.9491617312477181,413.4772858095738,337.6043810208844)" fill="#00a19d" filter="url(#bbburst-blur-1)"></use><use xlink:href="#bbburst-shape-6" width="10.621855068718585" opacity="0.9547479404996384" transform="matrix(0.9296347673584925,-0.3684822917296318,0.3684822917296318,0.9296347673584925,603.7279144652682,419.29338018293174)" fill="#2c2891"></use><use xlink:href="#bbburst-shape-4" width="25.90206579552874" opacity="0.6156407216329532" transform="matrix(0.9696004070891079,0.24469378940348321,-0.24469378940348321,0.9696004070891079,523.1515937955978,280.2884100241365)" fill="#00a19d" filter="url(#bbburst-blur-1)"></use><use xlink:href="#bbburst-shape-6" width="34.31580367947613" opacity="0.6061157137583668" transform="matrix(0.9949393474810055,0.10047733492719145,-0.10047733492719145,0.9949393474810055,568.8050798087746,99.52027404197793)" fill="#ff5c58" filter="url(#bbburst-blur-1)"></use><use xlink:href="#bbburst-shape-10" width="34.88348296806556" opacity="0.5034737975104152" transform="matrix(0.8476448516961957,0.5305640445723158,-0.5305640445723158,0.8476448516961957,804.2435528121342,-5.709911297510473)" fill="none" stroke="#ffa6d5" filter="url(#bbburst-blur-1)"></use><use xlink:href="#bbburst-shape-1" width="14.931854838912066" opacity="0.8689705889872408" transform="matrix(0.7418676647819636,0.670546320511086,-0.670546320511086,0.7418676647819636,941.2700309730922,448.95058085035197)" fill="#ffbd9b"></use><use xlink:href="#bbburst-shape-4" width="56.68772895723682" opacity="0.1854793523286088" transform="matrix(0.9336301388108167,0.3582384176831056,-0.3582384176831056,0.9336301388108167,176.54300258300435,76.67384580920753)" fill="#00a19d" filter="url(#bbburst-blur-3)"></use><use xlink:href="#bbburst-shape-6" width="6.405995433755459" opacity="0.9689795712782616" transform="matrix(0.8285721084276405,-0.5598823636584513,0.5598823636584513,0.8285721084276405,547.9461316884253,452.6242981988309)" fill="#00a19d"></use><use xlink:href="#bbburst-shape-10" width="21.43494183857067" opacity="0.7268378514617497" transform="matrix(0.8147292041641921,-0.5798416368992331,0.5798416368992331,0.8147292041641921,294.85841162064196,411.97414251580176)" fill="none" stroke="#00a19d"></use><use xlink:href="#bbburst-shape-4" width="36.442002102425285" opacity="0.2643751765837171" transform="matrix(0.9763409361676229,-0.21623685246351917,0.21623685246351917,0.9763409361676229,-38.306607426832116,365.0084816865463)" fill="#00a19d" filter="url(#bbburst-blur-2)"></use><use xlink:href="#bbburst-shape-10" width="30.147303328208196" opacity="0.5435392047993246" transform="matrix(0.7748462485486555,-0.6321497378865828,0.6321497378865828,0.7748462485486555,283.37738060056154,119.05037587058007)" fill="none" stroke="#2c2891" filter="url(#bbburst-blur-1)"></use><use xlink:href="#bbburst-shape-4" width="15.182647794703964" opacity="0.8513177942393297" transform="matrix(0.8836789113966125,0.4680935606830091,-0.4680935606830091,0.8836789113966125,832.8212203013168,425.9379304065618)" fill="#ffbd9b"></use><use xlink:href="#bbburst-shape-10" width="49.51060806267425" opacity="0.2707131751580154" transform="matrix(0.9613213740344845,0.27542914846553684,-0.27542914846553684,0.9613213740344845,681.0495896440208,-291.13343141214625)" fill="none" stroke="#ffa6d5" filter="url(#bbburst-blur-2)"></use><use xlink:href="#bbburst-shape-8" width="56.32230941835378" opacity="0.29859635535246276" transform="matrix(0.8476707390561395,-0.5305226839146636,0.5305226839146636,0.8476707390561395,-102.56158104686412,257.308378805568)" fill="none" stroke="#2c2891" filter="url(#bbburst-blur-2)"></use><use xlink:href="#bbburst-shape-1" width="16.27334965185686" opacity="0.8243219424358771" transform="matrix(0.99259021130749,0.12150996838347161,-0.12150996838347161,0.99259021130749,810.8664189778227,228.8396426989733)" fill="#ffbd9b"></use><use xlink:href="#bbburst-shape-4" width="16.785384363782608" opacity="0.546708249723667" transform="matrix(0.7539798357558505,0.6568975622375081,-0.6568975622375081,0.7539798357558505,603.6989888075866,470.18804472796813)" fill="#ffa6d5" filter="url(#bbburst-blur-1)"></use><use xlink:href="#bbburst-shape-8" width="15.279704258455018" opacity="0.8796305752206264" transform="matrix(0.9471861418424266,0.32068428820517336,-0.32068428820517336,0.9471861418424266,829.473212056471,340.5423045656142)" fill="none" stroke="#ffa6d5"></use><use xlink:href="#bbburst-shape-8" width="45.11421826953532" opacity="0.4379336554850588" transform="matrix(0.8373292346200846,0.5466989599867036,-0.5466989599867036,0.8373292346200846,693.3104890860609,-18.41938810880481)" fill="none" stroke="#00a19d" filter="url(#bbburst-blur-2)"></use><use xlink:href="#bbburst-shape-8" width="25.10274317843622" opacity="0.6148257234135042" transform="matrix(0.9782715521193925,0.20732768824716755,-0.20732768824716755,0.9782715521193925,486.3962576693775,379.5108591287817)" fill="none" stroke="#ff5c58" filter="url(#bbburst-blur-1)"></use><use xlink:href="#bbburst-shape-10" width="15.342461450632358" opacity="0.8704098998431782" transform="matrix(0.7742239021014908,-0.6329118022400444,0.6329118022400444,0.7742239021014908,479.65288072425324,380.9602668724634)" fill="none" stroke="#ff5c58"></use><use xlink:href="#bbburst-shape-8" width="34.670660013841" opacity="0.5046331090941758" transform="matrix(0.995288246902952,0.09696032991305452,-0.09696032991305452,0.995288246902952,771.5423613061747,-92.63439585332247)" fill="none" stroke="#2c2891" filter="url(#bbburst-blur-1)"></use><use xlink:href="#bbburst-shape-1" width="35.83278550498058" opacity="0.3298109106339926" transform="matrix(0.8415146201515734,-0.5402343418102491,0.5402343418102491,0.8415146201515734,505.74730703188015,-194.09924083871533)" fill="#ffbd9b" filter="url(#bbburst-blur-2)"></use><use xlink:href="#bbburst-shape-4" width="42.03620819957913" opacity="0.516794054062685" transform="matrix(0.997629252246407,-0.06881769439813273,0.06881769439813273,0.997629252246407,294.3489427963285,245.92623845610314)" fill="#2c2891" filter="url(#bbburst-blur-1)"></use><use xlink:href="#bbburst-shape-1" width="11.816871448088703" opacity="0.9357882231654282" transform="matrix(0.998326933365275,-0.05782157138547716,0.05782157138547716,0.998326933365275,714.9545764440867,369.64117217895586)" fill="#00a19d"></use><use xlink:href="#bbburst-shape-4" width="31.59745362458601" opacity="0.6901450430226418" transform="matrix(0.7757855116434141,-0.6309967035763073,0.6309967035763073,0.7757855116434141,348.08927739993106,252.81945034480498)" fill="#ff5c58"></use><use xlink:href="#bbburst-shape-10" width="20.90012152753366" opacity="0.7813268534687496" transform="matrix(0.7093188243318169,0.704887796353809,-0.704887796353809,0.7093188243318169,1051.5173025790355,291.44883079533116)" fill="none" stroke="#ffa6d5"></use><use xlink:href="#bbburst-shape-1" width="31.014969922569996" opacity="0.5439624085361598" transform="matrix(0.9973858463928994,0.07225976345878617,-0.07225976345878617,0.9973858463928994,703.299332344095,-42.57389112950074)" fill="#ffbd9b" filter="url(#bbburst-blur-1)"></use><use xlink:href="#bbburst-shape-10" width="36.979293418413214" opacity="0.46745960986723056" transform="matrix(0.8117640950578322,0.5839854912366734,-0.5839854912366734,0.8117640950578322,554.8867852870844,202.61259894216568)" fill="none" stroke="#2c2891" filter="url(#bbburst-blur-1)"></use><use xlink:href="#bbburst-shape-4" width="21.605328729296303" opacity="0.7678397680971175" transform="matrix(0.9732622481538508,-0.22969674860239586,0.22969674860239586,0.9732622481538508,621.5909688959091,193.83467627943742)" fill="#00a19d"></use><use xlink:href="#bbburst-shape-10" width="19.927557557020656" opacity="0.8253939166600415" transform="matrix(0.8720487115045483,-0.4894190890875192,0.4894190890875192,0.8720487115045483,429.49095900909447,402.07684348891524)" fill="none" stroke="#ffa6d5"></use><use xlink:href="#bbburst-shape-10" width="38.75853632137817" opacity="0.4179682729775134" transform="matrix(0.801926581833722,0.5974225952778173,-0.5974225952778173,0.801926581833722,467.4887102100673,295.3378059693416)" fill="none" stroke="#ffa6d5" filter="url(#bbburst-blur-2)"></use><use xlink:href="#bbburst-shape-4" width="22.570917035140905" opacity="0.6151267989807527" transform="matrix(0.7623830899383072,0.6471259724165914,-0.6471259724165914,0.7623830899383072,673.6458447999815,408.32818513377634)" fill="#ffa6d5" filter="url(#bbburst-blur-1)"></use><use xlink:href="#bbburst-shape-1" width="25.724581045925206" opacity="0.5884476970882213" transform="matrix(0.9703627322895632,-0.24165299042952823,0.24165299042952823,0.9703627322895632,657.135974451846,4.827506478453984)" fill="#00a19d" filter="url(#bbburst-blur-1)"></use><use xlink:href="#bbburst-shape-8" width="19.128532066192548" opacity="0.7672475926619613" transform="matrix(0.9657706086355978,-0.259397632016229,0.259397632016229,0.9657706086355978,556.2669189416687,223.60718187790582)" fill="none" stroke="#00a19d"></use><use xlink:href="#bbburst-shape-8" width="8.272993524150012" opacity="0.9846842860165713" transform="matrix(0.7998305592903635,-0.6002258545125029,0.6002258545125029,0.7998305592903635,548.2410956106978,469.71782268442917)" fill="none" stroke="#2c2891"></use><use xlink:href="#bbburst-shape-10" width="60.741600766382355" opacity="0.09533538704018552" transform="matrix(0.9963893326304146,-0.08490169503795003,0.08490169503795003,0.9963893326304146,4.988046429656293,-129.2349645113519)" fill="none" stroke="#2c2891" filter="url(#bbburst-blur-3)"></use><use xlink:href="#bbburst-shape-8" width="38.88188884691912" opacity="0.22928929530209707" transform="matrix(0.9882256221346669,-0.15300365929137305,0.15300365929137305,0.9882256221346669,-33.59341657397309,244.23700013172487)" fill="none" stroke="#2c2891" filter="url(#bbburst-blur-3)"></use><use xlink:href="#bbburst-shape-8" width="18.831706988266188" opacity="0.8385641620137023" transform="matrix(0.7502918070492696,0.6611068024719922,-0.6611068024719922,0.7502918070492696,922.0575718080303,405.6249451759373)" fill="none" stroke="#ffbd9b"></use><use xlink:href="#bbburst-shape-10" width="42.50130665271125" opacity="0.42279869617602606" transform="matrix(0.9636702665338069,0.2670947723162353,-0.2670947723162353,0.9636702665338069,837.3292166694937,-166.25916109025135)" fill="none" stroke="#00a19d" filter="url(#bbburst-blur-2)"></use><use xlink:href="#bbburst-shape-8" width="11.191456245293967" opacity="0.8898177025022294" transform="matrix(0.7616712030150261,0.6479637169607901,-0.6479637169607901,0.7616712030150261,945.6697359193125,477.43041362396144)" fill="none" stroke="#ffbd9b"></use><use xlink:href="#bbburst-shape-6" width="66.07407792206307" opacity="0.19340990317802542" transform="matrix(0.9763372804576905,0.2162533578663718,-0.2162533578663718,0.9763372804576905,285.7917985482943,-169.90888193340047)" fill="#ffa6d5" filter="url(#bbburst-blur-3)"></use><use xlink:href="#bbburst-shape-10" width="29.68141033759435" opacity="0.44264032152810895" transform="matrix(0.859216411797485,0.5116123119099605,-0.5116123119099605,0.859216411797485,436.111699265668,406.81198661431176)" fill="none" stroke="#00a19d" filter="url(#bbburst-blur-2)"></use><use xlink:href="#bbburst-shape-10" width="54.12379541871409" opacity="0.10239287832159716" transform="matrix(0.8964037845710687,0.44323837266945304,-0.44323837266945304,0.8964037845710687,429.868326105037,-299.93497590360175)" fill="none" stroke="#ffa6d5" filter="url(#bbburst-blur-3)"></use><use xlink:href="#bbburst-shape-1" width="26.034718835753832" opacity="0.5619970109096515" transform="matrix(0.9961658325669444,-0.0874850503012176,0.0874850503012176,0.9961658325669444,322.3057790862477,318.0073379238397)" fill="#2c2891" filter="url(#bbburst-blur-1)"></use><use xlink:href="#bbburst-shape-10" width="35.18779337276982" opacity="0.4834243795210319" transform="matrix(0.7510080580884589,-0.6602930384959408,0.6602930384959408,0.7510080580884589,160.27100547471338,143.08673675703886)" fill="none" stroke="#ffbd9b" filter="url(#bbburst-blur-1)"></use><use xlink:href="#bbburst-shape-6" width="54.87519316958179" opacity="0.3757985464789948" transform="matrix(0.7812719610408834,-0.6241907744362555,0.6241907744362555,0.7812719610408834,41.98489662095972,114.03770773910793)" fill="#2c2891" filter="url(#bbburst-blur-2)"></use><use xlink:href="#bbburst-shape-10" width="56.30654982654378" opacity="0.24382423683473475" transform="matrix(0.999656117419442,0.026223022439960008,-0.026223022439960008,0.999656117419442,157.72771948834355,-26.809859845156097)" fill="none" stroke="#00a19d" filter="url(#bbburst-blur-3)"></use><use xlink:href="#bbburst-shape-6" width="47.75987989659066" opacity="0.41625039773371886" transform="matrix(0.7111949712466517,0.7029948171028535,-0.7029948171028535,0.7111949712466517,908.4480387022732,-63.84884066173325)" fill="#ff5c58" filter="url(#bbburst-blur-2)"></use><use xlink:href="#bbburst-shape-4" width="21.005017935205746" opacity="0.7203149755373337" transform="matrix(0.9874904677991315,-0.15767871132734543,0.15767871132734543,0.9874904677991315,473.475079169938,287.6343471641669)" fill="#2c2891"></use><use xlink:href="#bbburst-shape-4" width="11.624312424269503" opacity="0.9400895429200339" transform="matrix(0.992755351140192,-0.12015328868788415,0.12015328868788415,0.992755351140192,710.0875326156732,355.7806780933293)" fill="#ffbd9b"></use><use xlink:href="#bbburst-shape-10" width="21.429148785734977" opacity="0.7736094916803667" transform="matrix(0.7335939708870244,0.6795880265853774,-0.6795880265853774,0.7335939708870244,849.6176066785181,426.45555693801913)" fill="none" stroke="#ffa6d5"></use><use xlink:href="#bbburst-shape-8" width="21.014347529344786" opacity="0.7938260997951476" transform="matrix(0.7990855847187018,-0.6012172887523864,0.6012172887523864,0.7990855847187018,372.04032343710395,384.5102917547568)" fill="none" stroke="#2c2891"></use><use xlink:href="#bbburst-shape-6" width="40.73121123609569" opacity="0.2359470769374592" transform="matrix(0.9420751031375593,0.3354019976809278,-0.3354019976809278,0.9420751031375593,825.1152593994715,-342.41065818495616)" fill="#00a19d" filter="url(#bbburst-blur-3)"></use><use xlink:href="#bbburst-shape-8" width="20.051074645287077" opacity="0.672867138504852" transform="matrix(0.8989375761575416,0.43807674461446156,-0.43807674461446156,0.8989375761575416,663.0346174997737,313.16913829915205)" fill="none" stroke="#ff5c58"></use><use xlink:href="#bbburst-shape-8" width="11.230444897221869" opacity="0.861958879568822" transform="matrix(0.8987295659354397,-0.43850332645659157,0.43850332645659157,0.8987295659354397,596.4011393250332,306.8845181743801)" fill="none" stroke="#2c2891"></use><use xlink:href="#bbburst-shape-1" width="57.0578722017192" opacity="0.1867149996626094" transform="matrix(0.9996204954690138,-0.027547505119036114,0.027547505119036114,0.9996204954690138,426.06549637034186,-340.3453553576073)" fill="#2c2891" filter="url(#bbburst-blur-3)"></use><use xlink:href="#bbburst-shape-10" width="52.18466084089823" opacity="0.2532073216700702" transform="matrix(0.8950727735394082,-0.44592009381555264,0.44592009381555264,0.8950727735394082,190.2820784339566,-171.8851041217311)" fill="none" stroke="#2c2891" filter="url(#bbburst-blur-2)"></use><use xlink:href="#bbburst-shape-10" width="23.347846901382606" opacity="0.6741968114267374" transform="matrix(0.9996530046451972,-0.02634141802996461,0.02634141802996461,0.9996530046451972,459.6087845818246,330.4023789739584)" fill="none" stroke="#2c2891"></use><use xlink:href="#bbburst-shape-4" width="15.079643270100346" opacity="0.8962347530021736" transform="matrix(0.7373517921869545,0.6755089448398787,-0.6755089448398787,0.7373517921869545,1046.1400274576,397.87244177688416)" fill="#00a19d"></use><use xlink:href="#bbburst-shape-8" width="12.78023013265964" opacity="0.9050005854855895" transform="matrix(0.7226448495063529,0.6912195175788518,-0.6912195175788518,0.7226448495063529,983.9244321043229,470.6021269275777)" fill="none" stroke="#00a19d"></use><use xlink:href="#bbburst-shape-8" width="8.223828963817922" opacity="0.9261776999478208" transform="matrix(0.8183671091000527,-0.5746958106191677,0.5746958106191677,0.8183671091000527,493.7048417701898,464.3781292665642)" fill="none" stroke="#ff5c58"></use><use xlink:href="#bbburst-shape-4" width="23.496337537842514" opacity="0.7120048216517119" transform="matrix(0.9461602033424514,0.32369873279172856,-0.32369873279172856,0.9461602033424514,791.1829779171285,159.35816207886086)" fill="#ff5c58"></use><use xlink:href="#bbburst-shape-10" width="25.909426305808598" opacity="0.6390209417187491" transform="matrix(0.80976368679669,-0.5867561431680388,0.5867561431680388,0.80976368679669,282.70749470955604,246.48789522701458)" fill="none" stroke="#ffa6d5" filter="url(#bbburst-blur-1)"></use><use xlink:href="#bbburst-shape-6" width="24.833279360999065" opacity="0.6862317510691747" transform="matrix(0.717134315111864,0.6969349855539164,-0.6969349855539164,0.717134315111864,979.6698460160254,203.96907175284724)" fill="#2c2891"></use><use xlink:href="#bbburst-shape-10" width="18.68687057486257" opacity="0.8061141396951322" transform="matrix(0.9698708903015831,-0.24361949048796272,0.24361949048796272,0.9698708903015831,500.7933846876373,392.88868918915483)" fill="none" stroke="#2c2891"></use><use xlink:href="#bbburst-shape-4" width="26.421341178876958" opacity="0.6603571033965845" transform="matrix(0.948770214597881,-0.31596689682922596,0.31596689682922596,0.948770214597881,627.5728918019131,86.70344683651922)" fill="#ffbd9b"></use><use xlink:href="#bbburst-shape-1" width="17.627742127080065" opacity="0.7925637687480688" transform="matrix(0.7408805883270015,-0.6716367722513681,0.6716367722513681,0.7408805883270015,374.72501879953467,366.41264996598653)" fill="#00a19d"></use><use xlink:href="#bbburst-shape-6" width="60.25544295040468" opacity="0.3484976093731692" transform="matrix(0.9061575453863571,-0.42294030659109827,0.42294030659109827,0.9061575453863571,25.269879349843507,150.1500895386526)" fill="#ff5c58" filter="url(#bbburst-blur-2)"></use><use xlink:href="#bbburst-shape-10" width="9.15548379531901" opacity="0.956694571829092" transform="matrix(0.9782966209625442,-0.20720936613306887,0.20720936613306887,0.9782966209625442,701.3223473273273,367.8289554823428)" fill="none" stroke="#00a19d"></use><use xlink:href="#bbburst-shape-4" width="19.00419813661688" opacity="0.7631280263012152" transform="matrix(0.956742648691631,-0.29093556704968626,0.29093556704968626,0.956742648691631,438.88673023856666,396.08377636038)" fill="#2c2891"></use><use xlink:href="#bbburst-shape-10" width="16.650132517292842" opacity="0.8411076229913085" transform="matrix(0.8377686986012686,-0.5460252811399275,0.5460252811399275,0.8377686986012686,469.607514077665,350.1900346668632)" fill="none" stroke="#ffbd9b"></use><use xlink:href="#bbburst-shape-4" width="33.97546391201084" opacity="0.6236129671474131" transform="matrix(0.9893836067564198,0.14532748770159812,-0.14532748770159812,0.9893836067564198,667.85764636683,67.77483824778602)" fill="#ffbd9b" filter="url(#bbburst-blur-1)"></use><use xlink:href="#bbburst-shape-8" width="11.010076842049585" opacity="0.9119604526003378" transform="matrix(0.8969919958203243,0.4420467842143763,-0.4420467842143763,0.8969919958203243,904.4489246689673,382.16658657981793)" fill="none" stroke="#ffa6d5"></use><use xlink:href="#bbburst-shape-10" width="83.34225422296517" opacity="-0.004024468981539409" transform="matrix(0.9230952704027066,-0.38457134807491067,0.38457134807491067,0.9230952704027066,-100.08040107757309,-265.32558475348986)" fill="none" stroke="#00a19d" filter="url(#bbburst-blur-3)"></use><use xlink:href="#bbburst-shape-8" width="40.11929274241396" opacity="0.5478750709508677" transform="matrix(0.9433145530251528,0.33190006636178343,-0.33190006636178343,0.9433145530251528,554.4285117057397,141.7133441704467)" fill="none" stroke="#2c2891" filter="url(#bbburst-blur-1)"></use><use xlink:href="#bbburst-shape-6" width="12.697752064908267" opacity="0.9067306431059728" transform="matrix(0.7955967167213875,0.6058265959349657,-0.6058265959349657,0.7955967167213875,989.0406372785313,398.0890569140737)" fill="#2c2891"></use><use xlink:href="#bbburst-shape-1" width="19.003319542560938" opacity="0.6667394844325898" transform="matrix(0.9744662486724333,-0.2245340290429837,0.2245340290429837,0.9744662486724333,368.524271387012,388.5567883834857)" fill="#ffbd9b"></use><use xlink:href="#bbburst-shape-10" width="18.499307253606247" opacity="0.7161941361976224" transform="matrix(0.8206724048907129,-0.5713989883180524,0.5713989883180524,0.8206724048907129,280.9338228138821,454.5551146143703)" fill="none" stroke="#ffa6d5"></use><use xlink:href="#bbburst-shape-8" width="21.239848710995673" opacity="0.7401222853206053" transform="matrix(0.7136784388473995,-0.7004734726771162,0.7004734726771162,0.7136784388473995,295.2801077288809,378.89922213409886)" fill="none" stroke="#ffa6d5"></use><use xlink:href="#bbburst-shape-6" width="23.52056425058723" opacity="0.7270212165670271" transform="matrix(0.9654580222302391,-0.2605586446680961,0.2605586446680961,0.9654580222302391,652.6336343974026,145.75977817530776)" fill="#ff5c58"></use><use xlink:href="#bbburst-shape-4" width="30.90379043085619" opacity="0.5751355609848479" transform="matrix(0.9311136507717991,-0.36472917260127713,0.36472917260127713,0.9311136507717991,261.2924004861206,240.09994486886268)" fill="#00a19d" filter="url(#bbburst-blur-1)"></use><use xlink:href="#bbburst-shape-10" width="11.211733041568788" opacity="0.9274172755047643" transform="matrix(0.9976251923387015,-0.06887652438363093,0.06887652438363093,0.9976251923387015,752.0412425721559,330.2814809759005)" fill="none" stroke="#00a19d"></use><use xlink:href="#bbburst-shape-8" width="18.545262342393215" opacity="0.8212103732951566" transform="matrix(0.7422182257871209,-0.6701582688510367,0.6701582688510367,0.7422182257871209,444.1997247299534,349.864449272697)" fill="none" stroke="#2c2891"></use><use xlink:href="#bbburst-shape-4" width="47.37250071657361" opacity="0.3435674890999304" transform="matrix(0.8772072490396391,0.4801119059472579,-0.4801119059472579,0.8772072490396391,540.6502332833286,-57.68740373703304)" fill="#2c2891" filter="url(#bbburst-blur-2)"></use><use xlink:href="#bbburst-shape-8" width="43.92172196576176" opacity="0.3553716724334789" transform="matrix(0.8605966167115467,0.50928721101618,-0.50928721101618,0.8605966167115467,707.3114702539626,-137.2625406768949)" fill="none" stroke="#ffa6d5" filter="url(#bbburst-blur-2)"></use></svg>