<svg xmlns="http://www.w3.org/2000/svg" version="1.1" xmlns:xlink="http://www.w3.org/1999/xlink" xmlns:svgjs="http://svgjs.dev/svgjs" viewBox="0 0 800 800"><defs><linearGradient x1="50%" y1="0%" x2="50%" y2="100%" id="ffflurry-grad" gradientTransform="rotate(270)"><stop stop-color="hsl(0, 0%, 100%)" stop-opacity="1" offset="0%"></stop><stop stop-color="hsl(1, 0%, 78%)" stop-opacity="1" offset="45%"></stop><stop stop-color="hsl(167, 52%, 78%)" stop-opacity="1" offset="100%"></stop></linearGradient></defs><rect width="100%" height="100%" fill="hsl(0, 0%, 0%)"></rect><g fill="url(#ffflurry-grad)"><rect width="619" height="3" x="-60.5" y="41.5" rx="1.5" transform="rotate(45, 249, 43)" opacity="0.95"></rect><rect width="74" height="3" x="478" y="699.5" rx="1.5" transform="rotate(45, 515, 701)" opacity="0.43"></rect><rect width="437" height="3" x="526.5" y="427.5" rx="1.5" transform="rotate(45, 745, 429)" opacity="0.70"></rect><rect width="94" height="3" x="130" y="208.5" rx="1.5" transform="rotate(45, 177, 210)" opacity="0.13"></rect><rect width="164" height="3" x="503" y="253.5" rx="1.5" transform="rotate(45, 585, 255)" opacity="0.28"></rect><rect width="540" height="3" x="294" y="644.5" rx="1.5" transform="rotate(45, 564, 646)" opacity="0.93"></rect><rect width="788" height="3" x="16" y="539.5" rx="1.5" transform="rotate(45, 410, 541)" opacity="0.77"></rect><rect width="355" height="3" x="177.5" y="58.5" rx="1.5" transform="rotate(45, 355, 60)" opacity="0.28"></rect><rect width="476" height="3" x="426" y="530.5" rx="1.5" transform="rotate(45, 664, 532)" opacity="0.46"></rect><rect width="460" height="3" x="344" y="31.5" rx="1.5" transform="rotate(45, 574, 33)" opacity="0.32"></rect><rect width="483" height="3" x="142.5" y="174.5" rx="1.5" transform="rotate(45, 384, 176)" opacity="0.11"></rect><rect width="578" height="3" x="225" y="86.5" rx="1.5" transform="rotate(45, 514, 88)" opacity="0.17"></rect><rect width="41" height="3" x="636.5" y="240.5" rx="1.5" transform="rotate(45, 657, 242)" opacity="0.31"></rect><rect width="64" height="3" x="304" y="737.5" rx="1.5" transform="rotate(45, 336, 739)" opacity="0.95"></rect><rect width="210" height="3" x="532" y="157.5" rx="1.5" transform="rotate(45, 637, 159)" opacity="0.95"></rect><rect width="208" height="3" x="675" y="294.5" rx="1.5" transform="rotate(45, 779, 296)" opacity="0.60"></rect><rect width="251" height="3" x="636.5" y="64.5" rx="1.5" transform="rotate(45, 762, 66)" opacity="0.44"></rect><rect width="317" height="3" x="613.5" y="124.5" rx="1.5" transform="rotate(45, 772, 126)" opacity="0.97"></rect><rect width="146" height="3" x="342" y="421.5" rx="1.5" transform="rotate(45, 415, 423)" opacity="0.21"></rect><rect width="110" height="3" x="538" y="777.5" rx="1.5" transform="rotate(45, 593, 779)" opacity="0.29"></rect><rect width="264" height="3" x="414" y="390.5" rx="1.5" transform="rotate(45, 546, 392)" opacity="0.16"></rect><rect width="527" height="3" x="-96.5" y="377.5" rx="1.5" transform="rotate(45, 167, 379)" opacity="0.67"></rect><rect width="222" height="3" x="326" y="658.5" rx="1.5" transform="rotate(45, 437, 660)" opacity="0.57"></rect><rect width="644" height="3" x="321" y="347.5" rx="1.5" transform="rotate(45, 643, 349)" opacity="0.36"></rect><rect width="77" height="3" x="291.5" y="619.5" rx="1.5" transform="rotate(45, 330, 621)" opacity="0.74"></rect><rect width="42" height="3" x="424" y="44.5" rx="1.5" transform="rotate(45, 445, 46)" opacity="0.60"></rect><rect width="492" height="3" x="461" y="110.5" rx="1.5" transform="rotate(45, 707, 112)" opacity="0.80"></rect><rect width="418" height="3" x="-147" y="26.5" rx="1.5" transform="rotate(45, 62, 28)" opacity="0.98"></rect><rect width="557" height="3" x="-124.5" y="63.5" rx="1.5" transform="rotate(45, 154, 65)" opacity="0.96"></rect><rect width="485" height="3" x="519.5" y="743.5" rx="1.5" transform="rotate(45, 762, 745)" opacity="0.71"></rect><rect width="135" height="3" x="571.5" y="671.5" rx="1.5" transform="rotate(45, 639, 673)" opacity="0.51"></rect><rect width="286" height="3" x="-53" y="362.5" rx="1.5" transform="rotate(45, 90, 364)" opacity="0.45"></rect><rect width="606" height="3" x="-29" y="457.5" rx="1.5" transform="rotate(45, 274, 459)" opacity="0.19"></rect><rect width="488" height="3" x="438" y="32.5" rx="1.5" transform="rotate(45, 682, 34)" opacity="0.42"></rect><rect width="137" height="3" x="-39.5" y="349.5" rx="1.5" transform="rotate(45, 29, 351)" opacity="0.44"></rect><rect width="122" height="3" x="648" y="241.5" rx="1.5" transform="rotate(45, 709, 243)" opacity="0.97"></rect><rect width="283" height="3" x="152.5" y="132.5" rx="1.5" transform="rotate(45, 294, 134)" opacity="0.55"></rect><rect width="362" height="3" x="-121" y="156.5" rx="1.5" transform="rotate(45, 60, 158)" opacity="0.85"></rect><rect width="30" height="3" x="743" y="247.5" rx="1.5" transform="rotate(45, 758, 249)" opacity="0.22"></rect><rect width="188" height="3" x="-3" y="242.5" rx="1.5" transform="rotate(45, 91, 244)" opacity="0.77"></rect><rect width="553" height="3" x="264.5" y="567.5" rx="1.5" transform="rotate(45, 541, 569)" opacity="0.36"></rect><rect width="240" height="3" x="612" y="618.5" rx="1.5" transform="rotate(45, 732, 620)" opacity="0.57"></rect><rect width="378" height="3" x="530" y="175.5" rx="1.5" transform="rotate(45, 719, 177)" opacity="0.79"></rect><rect width="306" height="3" x="475" y="85.5" rx="1.5" transform="rotate(45, 628, 87)" opacity="0.47"></rect><rect width="108" height="3" x="529" y="729.5" rx="1.5" transform="rotate(45, 583, 731)" opacity="0.77"></rect><rect width="504" height="3" x="-158" y="586.5" rx="1.5" transform="rotate(45, 94, 588)" opacity="0.20"></rect><rect width="307" height="3" x="602.5" y="516.5" rx="1.5" transform="rotate(45, 756, 518)" opacity="0.68"></rect><rect width="166" height="3" x="235" y="246.5" rx="1.5" transform="rotate(45, 318, 248)" opacity="0.75"></rect><rect width="688" height="3" x="-105" y="569.5" rx="1.5" transform="rotate(45, 239, 571)" opacity="0.90"></rect><rect width="66" height="3" x="425" y="762.5" rx="1.5" transform="rotate(45, 458, 764)" opacity="0.75"></rect><rect width="464" height="3" x="-177" y="90.5" rx="1.5" transform="rotate(45, 55, 92)" opacity="0.41"></rect><rect width="623" height="3" x="-266.5" y="485.5" rx="1.5" transform="rotate(45, 45, 487)" opacity="0.62"></rect><rect width="119" height="3" x="495.5" y="164.5" rx="1.5" transform="rotate(45, 555, 166)" opacity="0.58"></rect><rect width="649" height="3" x="97.5" y="280.5" rx="1.5" transform="rotate(45, 422, 282)" opacity="0.23"></rect><rect width="285" height="3" x="325.5" y="175.5" rx="1.5" transform="rotate(45, 468, 177)" opacity="0.57"></rect><rect width="380" height="3" x="300" y="475.5" rx="1.5" transform="rotate(45, 490, 477)" opacity="0.21"></rect><rect width="144" height="3" x="576" y="443.5" rx="1.5" transform="rotate(45, 648, 445)" opacity="0.63"></rect><rect width="218" height="3" x="652" y="17.5" rx="1.5" transform="rotate(45, 761, 19)" opacity="0.48"></rect><rect width="314" height="3" x="580" y="338.5" rx="1.5" transform="rotate(45, 737, 340)" opacity="0.77"></rect><rect width="393" height="3" x="516.5" y="672.5" rx="1.5" transform="rotate(45, 713, 674)" opacity="0.47"></rect><rect width="871" height="3" x="-380.5" y="719.5" rx="1.5" transform="rotate(45, 55, 721)" opacity="0.52"></rect><rect width="174" height="3" x="104" y="138.5" rx="1.5" transform="rotate(45, 191, 140)" opacity="0.12"></rect><rect width="301" height="3" x="21.5" y="690.5" rx="1.5" transform="rotate(45, 172, 692)" opacity="0.62"></rect><rect width="360" height="3" x="181" y="334.5" rx="1.5" transform="rotate(45, 361, 336)" opacity="0.35"></rect><rect width="119" height="3" x="100.5" y="472.5" rx="1.5" transform="rotate(45, 160, 474)" opacity="0.23"></rect><rect width="515" height="3" x="-15.5" y="317.5" rx="1.5" transform="rotate(45, 242, 319)" opacity="0.98"></rect><rect width="307" height="3" x="-127.5" y="235.5" rx="1.5" transform="rotate(45, 26, 237)" opacity="0.33"></rect><rect width="98" height="3" x="263" y="388.5" rx="1.5" transform="rotate(45, 312, 390)" opacity="0.31"></rect><rect width="530" height="3" x="306" y="480.5" rx="1.5" transform="rotate(45, 571, 482)" opacity="0.27"></rect><rect width="25" height="3" x="763.5" y="606.5" rx="1.5" transform="rotate(45, 776, 608)" opacity="0.38"></rect><rect width="210" height="3" x="541" y="600.5" rx="1.5" transform="rotate(45, 646, 602)" opacity="0.54"></rect><rect width="233" height="3" x="394.5" y="304.5" rx="1.5" transform="rotate(45, 511, 306)" opacity="0.29"></rect><rect width="311" height="3" x="621.5" y="189.5" rx="1.5" transform="rotate(45, 777, 191)" opacity="0.73"></rect><rect width="120" height="3" x="619" y="750.5" rx="1.5" transform="rotate(45, 679, 752)" opacity="0.96"></rect><rect width="228" height="3" x="110" y="757.5" rx="1.5" transform="rotate(45, 224, 759)" opacity="0.91"></rect><rect width="271" height="3" x="22.5" y="280.5" rx="1.5" transform="rotate(45, 158, 282)" opacity="0.72"></rect><rect width="163" height="3" x="173.5" y="207.5" rx="1.5" transform="rotate(45, 255, 209)" opacity="0.52"></rect></g></svg>