<svg xmlns="http://www.w3.org/2000/svg" version="1.1" xmlns:xlink="http://www.w3.org/1999/xlink" xmlns:svgjs="http://svgjs.dev/svgjs" viewBox="0 0 2400 800" opacity="0.48"><defs><linearGradient x1="50%" y1="0%" x2="50%" y2="100%" id="sssurf-grad"><stop stop-color="hsla(0, 0%, 73%, 1.00)" stop-opacity="1" offset="0%"></stop><stop stop-color="hsla(0, 0%, 100%, 1.00)" stop-opacity="1" offset="100%"></stop></linearGradient></defs><g fill="url(#sssurf-grad)" transform="matrix(1,0,0,1,0,-14.827911376953125)"><path d="M 0 326.22675780851546 Q 360 471.1940999139887 480 328.43482073878477 Q 840 618.4618409003443 960 302.1730174470204 Q 1320 615.5229479602154 1440 259.6557986270857 Q 1800 565.0017294565705 1920 366.821614755775 Q 2280 595.4635335256379 2400 367.81107271726904 L 2400 800 L 0 800 L 0 319.57736092443486 Z" transform="matrix(1,0,0,1,0,34)" opacity="0.05"></path><path d="M 0 326.22675780851546 Q 360 471.1940999139887 480 328.43482073878477 Q 840 618.4618409003443 960 302.1730174470204 Q 1320 615.5229479602154 1440 259.6557986270857 Q 1800 565.0017294565705 1920 366.821614755775 Q 2280 595.4635335256379 2400 367.81107271726904 L 2400 800 L 0 800 L 0 319.57736092443486 Z" transform="matrix(1,0,0,1,0,68)" opacity="0.37"></path><path d="M 0 326.22675780851546 Q 360 471.1940999139887 480 328.43482073878477 Q 840 618.4618409003443 960 302.1730174470204 Q 1320 615.5229479602154 1440 259.6557986270857 Q 1800 565.0017294565705 1920 366.821614755775 Q 2280 595.4635335256379 2400 367.81107271726904 L 2400 800 L 0 800 L 0 319.57736092443486 Z" transform="matrix(1,0,0,1,0,102)" opacity="0.68"></path><path d="M 0 326.22675780851546 Q 360 471.1940999139887 480 328.43482073878477 Q 840 618.4618409003443 960 302.1730174470204 Q 1320 615.5229479602154 1440 259.6557986270857 Q 1800 565.0017294565705 1920 366.821614755775 Q 2280 595.4635335256379 2400 367.81107271726904 L 2400 800 L 0 800 L 0 319.57736092443486 Z" transform="matrix(1,0,0,1,0,136)" opacity="1.00"></path></g></svg>